<svg xmlns="http://www.w3.org/2000/svg" width="40.5" height="40" viewBox="0 0 40.5 40"><defs><style>.a{fill:#ebc525;}.b,.c,.e{fill:none;}.b,.c{stroke:#000;}.c{stroke-linecap:round;stroke-linejoin:round;stroke-miterlimit:10;}.d{stroke:none;}</style></defs><g transform="translate(699.5 -4473)"><g transform="translate(-699.5 4473)"><circle class="a" cx="19" cy="19" r="19" transform="translate(0 2)"/><g class="b" transform="translate(2.5)"><circle class="d" cx="19" cy="19" r="19"/><circle class="e" cx="19" cy="19" r="18.5"/></g></g><g transform="translate(-691.971 4481.337)"><g transform="translate(8.971 2.663)"><path class="c" d="M17.273,2.666H9.663a.717.717,0,0,0-.692.741V17.128a.718.718,0,0,0,.692.745H20.851V6.4" transform="translate(-8.971 -2.665)"/><path class="c" d="M32.775,2.663v3.2a.756.756,0,0,0,.712.795l2.9-.205L33.09,2.663Z" transform="translate(-24.472 -2.663)"/><path class="c" d="M15.809,12.543h3.555" transform="translate(-13.424 -9.097)"/><path class="c" d="M15.809,20.849h7.109" transform="translate(-13.424 -14.506)"/><path class="c" d="M15.809,29.154h7.109" transform="translate(-13.424 -19.914)"/><path class="c" d="M15.809,29.154h7.109" transform="translate(-13.424 -17.123)"/></g></g></g></svg>