<svg xmlns="http://www.w3.org/2000/svg" width="12.441" height="26.774" viewBox="0 0 12.441 26.774"><defs><style>.a{fill:#fff;fill-rule:evenodd;}</style></defs><path class="a" d="M43.439,29.589V42.525a.354.354,0,0,0,.35.35H48.6a.354.354,0,0,0,.35-.35V29.356h3.467a.372.372,0,0,0,.35-.32l.291-3.933a.344.344,0,0,0-.35-.379H48.916v-2.8a1.181,1.181,0,0,1,1.195-1.195h2.68a.354.354,0,0,0,.35-.35V16.45a.354.354,0,0,0-.35-.35H48.246a4.812,4.812,0,0,0-4.807,4.807v3.817H41.05a.354.354,0,0,0-.35.35v3.962a.354.354,0,0,0,.35.35h2.389Z" transform="translate(-40.7 -16.1)"/></svg>