<svg xmlns="http://www.w3.org/2000/svg" width="29.761" height="28.443" viewBox="0 0 29.761 28.443"><defs><style>.a{fill:#fff;}</style></defs><path class="a" d="M6.762,9.24v19.2H.369V9.24Zm.406-5.927c0,.034,0,.075,0,.116a3.056,3.056,0,0,1-.979,2.245h0a3.634,3.634,0,0,1-2.459.951c-.058,0-.117,0-.175,0H3.525c-.049,0-.105,0-.162,0a3.489,3.489,0,0,1-2.4-.953h0A3.164,3.164,0,0,1,0,3.4c0-.028,0-.057,0-.086v0c0-.025,0-.053,0-.082a3.113,3.113,0,0,1,1-2.286H1A3.633,3.633,0,0,1,3.446,0c.055,0,.108,0,.162,0H3.6c.051,0,.109,0,.169,0a3.535,3.535,0,0,1,2.41.946l0,0a3.224,3.224,0,0,1,.989,2.327v.047ZM29.756,17.438v11H23.383V18.171c.006-.094.008-.2.008-.312a5.572,5.572,0,0,0-.808-2.9l.014.025a2.756,2.756,0,0,0-2.247-1.16c-.071,0-.142,0-.213.008h.009l-.105,0a3.122,3.122,0,0,0-1.944.675l.007,0a4.14,4.14,0,0,0-1.223,1.629l-.009.027a4.576,4.576,0,0,0-.216,1.407q0,.085,0,.171V28.441H10.287q.039-7.729.039-12.534t-.019-5.734l-.019-.93h6.373v2.789h-.039a8.4,8.4,0,0,1,.8-1.095l-.009.011a8.254,8.254,0,0,1,1.076-.993l.019-.014a4.991,4.991,0,0,1,1.649-.834L20.2,9.1a7.521,7.521,0,0,1,2.129-.3h.089c.084,0,.182-.006.281-.006a6.863,6.863,0,0,1,5.043,2.2l0,0q2.017,2.2,2.017,6.441Z" transform="translate(0.003 0.002)"/></svg>