<svg xmlns="http://www.w3.org/2000/svg" width="41.271" height="29" viewBox="0 0 41.271 29"><defs><style>.a{fill:#fff;}</style></defs><path class="a" d="M42.252,14.479a15.935,15.935,0,0,0-1.706-7.743,5.474,5.474,0,0,0-3.225-1.875A146.912,146.912,0,0,0,21.63,4.28a147.068,147.068,0,0,0-15.635.562A5.381,5.381,0,0,0,3.257,6.23C1.57,7.786,1.383,10.448,1.2,12.7a90.527,90.527,0,0,0,0,12.148A17.9,17.9,0,0,0,1.758,28.6a5.887,5.887,0,0,0,1.331,2.55,5.362,5.362,0,0,0,2.793,1.462,84.7,84.7,0,0,0,12.186.619c6.562.094,12.317,0,19.123-.525a5.4,5.4,0,0,0,2.868-1.462A4.668,4.668,0,0,0,41.2,29.364a19.834,19.834,0,0,0,.975-6.374C42.252,21.94,42.252,15.6,42.252,14.479ZM17.393,24.115V12.51l11.1,5.83C25.38,20.065,21.274,22.015,17.393,24.115Z" transform="translate(-0.991 -4.258)"/></svg>